<?xml version="1.0" encoding="UTF-8" standalone="no"?>
<!-- Created with Inkscape (http://www.inkscape.org/) -->

<svg
   xmlns:dc="http://purl.org/dc/elements/1.1/"
   xmlns:cc="http://creativecommons.org/ns#"
   xmlns:rdf="http://www.w3.org/1999/02/22-rdf-syntax-ns#"
   xmlns:svg="http://www.w3.org/2000/svg"
   xmlns="http://www.w3.org/2000/svg"
   xmlns:sodipodi="http://sodipodi.sourceforge.net/DTD/sodipodi-0.dtd"
   xmlns:inkscape="http://www.inkscape.org/namespaces/inkscape"
   version="1.1"
   id="svg2"
   xml:space="preserve"
   width="300"
   height="328.81866"
   viewBox="0 0 300.00001 328.81866"
   sodipodi:docname="logo-campus-petit.svg"
   inkscape:version="0.92.2 (5c3e80d, 2017-08-06)"><metadata
     id="metadata8"><rdf:RDF><cc:Work
         rdf:about=""><dc:format>image/svg+xml</dc:format><dc:type
           rdf:resource="http://purl.org/dc/dcmitype/StillImage" /><dc:title></dc:title></cc:Work></rdf:RDF></metadata><defs
     id="defs6"><clipPath
       clipPathUnits="userSpaceOnUse"
       id="clipPath22"><path
         d="M 0,246.614 H 1133.858 V 0 H 0 Z"
         id="path20"
         inkscape:connector-curvature="0" /></clipPath></defs><sodipodi:namedview
     pagecolor="#ffffff"
     bordercolor="#666666"
     borderopacity="1"
     objecttolerance="10"
     gridtolerance="10"
     guidetolerance="10"
     inkscape:pageopacity="0"
     inkscape:pageshadow="2"
     inkscape:window-width="1920"
     inkscape:window-height="1044"
     id="namedview4"
     showgrid="false"
     inkscape:zoom="0.85989451"
     inkscape:cx="755.90668"
     inkscape:cy="146.41155"
     inkscape:window-x="0"
     inkscape:window-y="0"
     inkscape:window-maximized="1"
     inkscape:current-layer="g10" /><g
     id="g10"
     inkscape:groupmode="layer"
     inkscape:label="logo-campus-long"
     transform="matrix(1.3333333,0,0,-1.3333333,0,328.81867)"><path
       inkscape:connector-curvature="0"
       id="path14"
       style="fill:#ffffff;fill-opacity:1;fill-rule:nonzero;stroke:none"
       d="M 210.4341,183.541 V 17.77 H 66.9111 l -53.122,54.05 v 158.497 h 149.513 z" /><g
       id="g1251"
       style="fill:#211d3c;fill-opacity:1"><g
         transform="translate(31.3872,207.5508)"
         id="g84"
         style="fill:#211d3c;fill-opacity:1"><path
           inkscape:connector-curvature="0"
           id="path86"
           style="fill:#211d3c;fill-opacity:1;fill-rule:nonzero;stroke:none"
           d="m 0,0 h -3.723 v 10.024 h 3.55 C 3.021,10.024 7.44,9.589 7.44,5.17 7.44,0.745 3.065,0 0,0 m 5.079,-2.583 c 3.675,0.613 7.179,3.155 7.179,8.013 0,7.967 -7.661,8.578 -12.476,8.578 h -8.144 v -30.904 h 4.639 v 13.043 h 3.026 c 0.786,0 1.527,-0.089 2.493,-1.572 l 7.57,-11.471 h 5.693 c -2.889,3.939 -8.275,11.684 -9.98,14.313" /></g><g
         transform="translate(56.1616,201.9063)"
         id="g88"
         style="fill:#211d3c;fill-opacity:1"><path
           inkscape:connector-curvature="0"
           id="path90"
           style="fill:#211d3c;fill-opacity:1;fill-rule:nonzero;stroke:none"
           d="m 0,0 3.283,9.5 c 0.701,2.008 1.359,4.465 1.531,5.514 H 4.947 C 5.123,13.921 5.78,11.47 6.437,9.538 L 9.806,0 Z M 7.529,19.743 H 2.498 L -8.447,-11.252 h 4.596 l 2.622,7.355 h 12.218 l 2.712,-7.355 h 4.947 z" /></g><g
         transform="translate(88.8188,194.6836)"
         id="g92"
         style="fill:#211d3c;fill-opacity:1"><path
           inkscape:connector-curvature="0"
           id="path94"
           style="fill:#211d3c;fill-opacity:1;fill-rule:nonzero;stroke:none"
           d="m 0,0 h -4.027 v 22.805 h 3.94 c 5.207,0 12.866,-1.27 12.866,-10.987 C 12.779,2.493 6.781,0 0,0 M -0.7,26.875 H -8.668 V -4.029 h 7.746 c 9.673,0 18.475,3.195 18.475,16.156 0,13.524 -10.816,14.748 -18.253,14.748" /></g><path
         inkscape:connector-curvature="0"
         id="path96"
         style="fill:#211d3c;fill-opacity:1;fill-rule:nonzero;stroke:none"
         d="m 118.102,221.559 h -4.64 v -30.904 h 4.64 z" /><g
         transform="translate(139.1138,193.9834)"
         id="g98"
         style="fill:#211d3c;fill-opacity:1"><path
           inkscape:connector-curvature="0"
           id="path100"
           style="fill:#211d3c;fill-opacity:1;fill-rule:nonzero;stroke:none"
           d="m 0,0 c -6.654,0 -9.148,5.908 -9.148,12.17 0,6.302 2.406,12.167 9.148,12.167 6.648,0 9.148,-5.908 9.148,-12.167 C 9.148,5.863 6.737,0 0,0 m 0.038,28.498 c -6.603,0 -13.959,-4.47 -13.959,-16.328 0,-10.815 5.601,-16.327 13.878,-16.327 6.603,0 13.959,4.466 13.959,16.327 0,10.811 -5.6,16.328 -13.878,16.328" /></g><g
         transform="translate(36.6655,160.1592)"
         id="g102"
         style="fill:#211d3c;fill-opacity:1"><path
           inkscape:connector-curvature="0"
           id="path104"
           style="fill:#211d3c;fill-opacity:1;fill-rule:nonzero;stroke:none"
           d="m 0,0 h -1.929 v 15.759 h 1.711 c 3.456,0 8.227,-0.915 8.227,-7.657 C 8.009,1.794 4.858,0 0,0 M 1.14,23.335 H -13.438 V -7.571 H 0.83 c 9.458,0 18.865,2.629 18.865,16.151 0,14.535 -12.648,14.755 -18.555,14.755" /></g><path
         inkscape:connector-curvature="0"
         id="path106"
         style="fill:#211d3c;fill-opacity:1;fill-rule:nonzero;stroke:none"
         d="M 73.083,183.494 H 61.57 v -30.906 h 11.513 z" /><g
         transform="translate(94.7925,164.9766)"
         id="g108"
         style="fill:#211d3c;fill-opacity:1"><path
           inkscape:connector-curvature="0"
           id="path110"
           style="fill:#211d3c;fill-opacity:1;fill-rule:nonzero;stroke:none"
           d="M 0,0 V 18.518 H -11.466 V 1.138 c 0,-3.985 -1.096,-6.089 -5.208,-6.089 -0.222,0 -0.439,0.045 -0.657,0.045 l -0.265,-7.746 c 0.922,-0.045 2.147,-0.09 3.066,-0.09 C -5.733,-12.742 0,-9.459 0,0" /></g><g
         transform="translate(117.0728,159.6787)"
         id="g112"
         style="fill:#211d3c;fill-opacity:1"><path
           inkscape:connector-curvature="0"
           id="path114"
           style="fill:#211d3c;fill-opacity:1;fill-rule:nonzero;stroke:none"
           d="m 0,0 c -4.205,0 -5.518,3.94 -5.518,8.45 0,4.506 1.402,8.356 5.651,8.356 4.199,0 5.513,-3.939 5.513,-8.447 C 5.646,3.853 4.243,0 0,0 m 0.133,24.732 c -7.835,0 -17.382,-4.289 -17.382,-16.327 0,-12.167 8.145,-16.328 17.249,-16.328 7.836,0 17.376,4.293 17.376,16.328 0,12.166 -8.139,16.327 -17.243,16.327" /></g><g
         transform="translate(171.2192,152.5879)"
         id="g116"
         style="fill:#211d3c;fill-opacity:1"><path
           inkscape:connector-curvature="0"
           id="path118"
           style="fill:#211d3c;fill-opacity:1;fill-rule:nonzero;stroke:none"
           d="M 0,0 V 30.906 H -10.374 V 16.941 h -0.089 c -0.175,0.745 -1.615,3.194 -3.236,5.474 l -6.087,8.491 H -31.733 V 0 h 10.373 v 14.137 h 0.089 c 0.259,-0.701 1.528,-2.885 3.24,-5.253 L -11.641,0 Z" /></g><g
         transform="translate(47.5659,146.3369)"
         id="g120"
         style="fill:#211d3c;fill-opacity:1"><path
           inkscape:connector-curvature="0"
           id="path122"
           style="fill:#211d3c;fill-opacity:1;fill-rule:nonzero;stroke:none"
           d="m 0,0 c -2.231,1.661 -5.341,2.538 -9.192,2.538 -10.068,0 -14.576,-8.321 -14.576,-16.636 0,-8.793 5.253,-15.845 14.62,-15.845 3.503,0 6.917,1.097 9.104,2.801 l -1.793,3.853 c -1.62,-1.357 -4.072,-2.361 -6.788,-2.361 -6.168,0 -10.329,4.944 -10.329,11.686 0,5.688 2.76,12.21 9.982,12.21 2.716,0 4.989,-0.915 6.784,-2.316 z" /></g><g
         transform="translate(58.6851,128.3887)"
         id="g124"
         style="fill:#211d3c;fill-opacity:1"><path
           inkscape:connector-curvature="0"
           id="path126"
           style="fill:#211d3c;fill-opacity:1;fill-rule:nonzero;stroke:none"
           d="m 0,0 3.282,9.503 c 0.702,2.007 1.358,4.462 1.534,5.513 h 0.13 C 5.12,13.922 5.776,11.472 6.433,9.54 L 9.804,0 Z M 7.528,19.743 H 2.493 L -8.448,-11.249 h 4.596 l 2.626,7.353 h 12.212 l 2.714,-7.353 h 4.947 z" /></g><g
         transform="translate(113.8335,117.1396)"
         id="g128"
         style="fill:#211d3c;fill-opacity:1"><path
           inkscape:connector-curvature="0"
           id="path130"
           style="fill:#211d3c;fill-opacity:1;fill-rule:nonzero;stroke:none"
           d="M 0,0 -1.312,30.903 H -6.604 L -14.003,10.637 C -14.792,8.491 -15.36,6.74 -15.582,5.819 h -0.088 c -0.17,0.834 -0.7,2.581 -1.528,4.73 l -7.745,20.354 h -5.254 L -31.164,0 h 4.073 l 0.568,19.521 c 0.044,1.355 0,3.415 0,4.292 h 0.089 c 0.132,-0.789 0.788,-2.937 1.401,-4.552 L -17.64,0 h 3.461 l 7.311,19.04 c 0.789,2.058 1.357,3.984 1.533,4.904 h 0.083 c 0,-0.877 0,-3.238 0.045,-4.595 L -4.507,0 Z" /></g><g
         transform="translate(130.604,132.5479)"
         id="g132"
         style="fill:#211d3c;fill-opacity:1"><path
           inkscape:connector-curvature="0"
           id="path134"
           style="fill:#211d3c;fill-opacity:1;fill-rule:nonzero;stroke:none"
           d="m 0,0 h -3.238 v 11.512 h 3.37 c 3.365,0 7.615,-0.701 7.615,-5.645 C 7.747,1.183 4.027,0 0,0 M -0.089,15.495 H -7.88 v -30.903 h 4.642 v 11.424 h 3.194 c 5.732,0 12.52,1.661 12.52,10.111 0,9.191 -8.89,9.368 -12.565,9.368" /></g><g
         transform="translate(174.3774,129.1777)"
         id="g136"
         style="fill:#211d3c;fill-opacity:1"><path
           inkscape:connector-curvature="0"
           id="path138"
           style="fill:#211d3c;fill-opacity:1;fill-rule:nonzero;stroke:none"
           d="M 0,0 V 18.865 H -4.553 V 0.132 c 0,-5.43 -2.323,-8.755 -7.923,-8.755 -5.955,0 -7.968,3.673 -7.968,8.755 v 18.733 h -4.641 V 0 c 0,-8.145 3.762,-12.784 12.564,-12.784 C -3.77,-12.784 0,-8.145 0,0" /></g><g
         transform="translate(200.0659,125.8936)"
         id="g140"
         style="fill:#211d3c;fill-opacity:1"><path
           inkscape:connector-curvature="0"
           id="path142"
           style="fill:#211d3c;fill-opacity:1;fill-rule:nonzero;stroke:none"
           d="m 0,0 c 0,4.858 -3.15,7.091 -7.089,8.752 l -2.672,1.143 c -2.14,0.915 -4.287,2.103 -4.287,4.686 0,2.094 1.535,4.462 5.513,4.462 2.323,0 4.159,-0.7 5.908,-2.147 l 2.191,3.808 c -2.191,1.577 -4.941,2.277 -8.099,2.277 -5.91,0 -10.064,-3.761 -10.064,-8.888 0,-4.724 2.928,-6.956 6.743,-8.579 l 2.664,-1.138 c 2.412,-1.002 4.641,-2.184 4.641,-5.03 0,-3.374 -2.974,-4.819 -6.036,-4.819 -2.627,0 -4.995,1.011 -6.699,2.368 l -2.103,-3.851 C -17.286,-8.577 -14.401,-9.5 -10.896,-9.5 -5.251,-9.5 0,-6.698 0,0" /></g><g
         transform="translate(35.813,98.5557)"
         id="g144"
         style="fill:#211d3c;fill-opacity:1"><path
           inkscape:connector-curvature="0"
           id="path146"
           style="fill:#211d3c;fill-opacity:1;fill-rule:nonzero;stroke:none"
           d="m 0,0 c -0.392,-0.435 -0.827,-0.7 -1.313,-0.7 -1.793,0 -2.051,2.191 -2.051,3.63 0,1.314 0.258,3.769 2.051,3.769 1.888,0 2.014,-2.891 2.014,-4.204 C 0.701,1.403 0.486,0.523 0,0 m -1.704,13.745 c -6.787,0 -11.996,-4.331 -11.996,-11.339 0,-5.866 3.939,-9.628 9.761,-9.628 1.622,0 3.239,0.392 4.596,1.269 -0.082,-1.66 -1.004,-5.645 -6.345,-5.645 -1.491,0 -3.062,0.305 -4.464,0.828 l -0.833,-7.57 c 1.622,-0.265 3.679,-0.434 6.174,-0.434 10.676,0 15.974,7.613 15.974,17.682 0,8.663 -3.41,14.837 -12.867,14.837" /></g><g
         transform="translate(74.5542,80.6504)"
         id="g148"
         style="fill:#211d3c;fill-opacity:1"><path
           inkscape:connector-curvature="0"
           id="path150"
           style="fill:#211d3c;fill-opacity:1;fill-rule:nonzero;stroke:none"
           d="m 0,0 v 7.445 h -11.598 c 0.744,1.577 2.714,2.583 4.109,3.504 3.769,2.494 7.053,5.333 7.053,10.24 0,7.223 -6.174,10.551 -12.697,10.551 -5.297,0 -8.58,-1.011 -11.296,-2.014 l 3.07,-7.445 c 1.268,0.878 3.15,1.491 4.854,1.491 2.368,0 4.597,-1.446 4.597,-3.94 0,-2.627 -2.318,-4.161 -4.464,-5.688 -4.16,-2.937 -6.522,-4.862 -7.311,-7.665 V 0 Z" /></g><g
         transform="translate(88.646,84.9004)"
         id="g152"
         style="fill:#211d3c;fill-opacity:1"><path
           inkscape:connector-curvature="0"
           id="path154"
           style="fill:#211d3c;fill-opacity:1;fill-rule:nonzero;stroke:none"
           d="m 0,0 c 0,2.804 -1.926,4.641 -5.342,4.641 -3.719,0 -5.468,-2.237 -5.468,-4.641 0,-2.849 2.23,-4.642 5.468,-4.642 C -2.14,-4.642 0,-2.936 0,0" /></g><g
         transform="translate(115.6997,80.6504)"
         id="g156"
         style="fill:#211d3c;fill-opacity:1"><path
           inkscape:connector-curvature="0"
           id="path158"
           style="fill:#211d3c;fill-opacity:1;fill-rule:nonzero;stroke:none"
           d="m 0,0 v 7.445 h -11.598 c 0.745,1.577 2.715,2.583 4.11,3.504 3.769,2.494 7.052,5.333 7.052,10.24 0,7.223 -6.174,10.551 -12.697,10.551 -5.297,0 -8.579,-1.011 -11.295,-2.014 l 3.07,-7.445 c 1.268,0.878 3.15,1.491 4.854,1.491 2.368,0 4.597,-1.446 4.597,-3.94 0,-2.627 -2.318,-4.161 -4.464,-5.688 -4.161,-2.937 -6.522,-4.862 -7.311,-7.665 V 0 Z" /></g></g></g></svg>